<?xml version="1.0"?>
<svg xmlns="http://www.w3.org/2000/svg" xmlns:xlink="http://www.w3.org/1999/xlink" version="1.1" id="Layer_1" x="0px" y="0px" viewBox="0 0 511.521 511.521" style="enable-background:new 0 0 511.521 511.521;" xml:space="preserve" width="512px" height="512px" class=""><g><g>
	<g>
		<path d="M400.817,178.731l-128-170.667c-8.043-10.752-26.091-10.752-34.133,0l-128,170.667    c-4.843,6.464-5.611,15.104-2.005,22.336c3.627,7.232,10.987,11.797,19.072,11.797h64v85.333c0,11.776,9.536,21.333,21.333,21.333    h85.333c11.797,0,21.333-9.557,21.333-21.333v-85.333h64c8.085,0,15.467-4.565,19.093-11.797    C406.449,193.835,405.681,185.195,400.817,178.731z" data-original="#000000" class="active-path" data-old_color="#000000" fill="#91D380"/>
	</g>
</g><g>
	<g>
		<path d="M298.421,340.855h-85.333c-11.797,0-21.333,9.536-21.333,21.333s9.536,21.333,21.333,21.333h85.333    c11.797,0,21.333-9.536,21.333-21.333S310.218,340.855,298.421,340.855z" data-original="#000000" class="active-path" data-old_color="#000000" fill="#91D380"/>
	</g>
</g><g>
	<g>
		<path d="M298.421,404.855h-85.333c-11.797,0-21.333,9.536-21.333,21.333s9.536,21.333,21.333,21.333h85.333    c11.797,0,21.333-9.536,21.333-21.333S310.218,404.855,298.421,404.855z" data-original="#000000" class="active-path" data-old_color="#000000" fill="#91D380"/>
	</g>
</g><g>
	<g>
		<path d="M298.421,468.855h-85.333c-11.797,0-21.333,9.536-21.333,21.333s9.536,21.333,21.333,21.333h85.333    c11.797,0,21.333-9.536,21.333-21.333S310.218,468.855,298.421,468.855z" data-original="#000000" class="active-path" data-old_color="#000000" fill="#91D380"/>
	</g>
</g></g> </svg>
